<svg width="214" height="50" viewBox="0 0 214 50" fill="none" xmlns="http://www.w3.org/2000/svg">
<path d="M38.8184 0C45.5601 8.15139e-05 51.0252 5.4653 51.0254 12.207V16.4668L60.4785 11.0078C61.4818 10.4284 62.7362 11.152 62.7363 12.3105V32.0234C62.7363 33.1821 61.4819 33.9066 60.4785 33.3271L51.0254 27.8672V32.126C51.0254 38.8679 45.5602 44.3329 38.8184 44.333H21.7031C21.6907 44.3409 21.6789 44.35 21.666 44.3574L12.1279 49.8643C11.4591 50.2501 10.623 49.7673 10.623 48.9951V44.333H10.1211C4.53133 44.3328 0 39.8017 0 34.2119V12.207C0.000171758 5.46535 5.46535 0.000169867 12.207 0H38.8184Z" fill="url(#paint0_linear_1_4975)"/>
<path d="M35.966 18.1533C36.0566 18.6371 35.6673 19.0616 35.175 19.0616H32.2584C31.8573 19.0616 31.5191 18.7742 31.4011 18.3908C31.0937 17.3915 30.5486 16.5552 29.7659 15.882C28.8287 15.0634 27.6205 14.6541 26.1414 14.6541C24.2962 14.6541 22.8172 15.3777 21.7042 16.8249C20.6059 18.2576 20.0567 20.2019 20.0567 22.6578C20.0567 25.1576 20.6059 27.1165 21.7042 28.5345C22.8172 29.9525 24.3109 30.6615 26.1853 30.6615C27.6351 30.6615 28.8213 30.2887 29.7439 29.5432C30.5222 28.912 31.0733 28.0791 31.3971 27.0447C31.5156 26.6663 31.8515 26.3856 32.248 26.3856H35.2116C35.7065 26.3856 36.0966 26.8143 36.0037 27.3004C35.6115 29.3534 34.6159 31.0439 33.0169 32.3719C31.201 33.8776 28.9092 34.6305 26.1414 34.6305C22.8171 34.6305 20.1665 33.5633 18.1895 31.429C16.2126 29.2801 15.2241 26.3563 15.2241 22.6578C15.2241 19.0031 16.2126 16.1013 18.1895 13.9524C20.1665 11.7888 22.8025 10.707 26.0975 10.707C28.9678 10.707 31.2962 11.5111 33.0828 13.1191C34.636 14.5044 35.5971 16.1824 35.966 18.1533Z" fill="white"/>
<path d="M85.0658 37.6583C81.6638 37.6583 78.9697 36.5608 76.9834 34.366C75.008 32.1712 74.0204 29.1753 74.0204 25.3783C74.0204 21.6032 75.0135 18.6182 76.9998 16.4234C78.9971 14.2176 81.6857 13.1147 85.0658 13.1147C87.8312 13.1147 90.1632 13.9049 92.0617 15.4851C93.9602 17.0544 95.0412 19.1121 95.3046 21.6581H91.1234C90.8491 20.1656 90.1522 18.9694 89.0329 18.0695C87.9245 17.1697 86.6021 16.7197 85.0658 16.7197C83.0246 16.7197 81.3949 17.5044 80.1768 19.0737C78.9697 20.632 78.3661 22.7335 78.3661 25.3783C78.3661 28.045 78.9697 30.1575 80.1768 31.7158C81.384 33.2741 83.0191 34.0533 85.0822 34.0533C86.6515 34.0533 87.9684 33.6527 89.0329 32.8516C90.1083 32.0395 90.8107 30.9202 91.1399 29.4935H95.3046C94.9314 32.0395 93.834 34.0368 92.0123 35.4854C90.1906 36.934 87.8751 37.6583 85.0658 37.6583ZM97.2233 37.2632V13.5098H101.322V37.2632H97.2233ZM103.899 37.2632V19.8144H107.998V37.2632H103.899ZM107.554 16.8843C107.115 17.3123 106.577 17.5263 105.94 17.5263C105.304 17.5263 104.766 17.3123 104.327 16.8843C103.888 16.4454 103.669 15.9186 103.669 15.3041C103.669 14.6785 103.888 14.1518 104.327 13.7238C104.766 13.2848 105.304 13.0654 105.94 13.0654C106.577 13.0654 107.115 13.2848 107.554 13.7238C108.004 14.1518 108.229 14.6785 108.229 15.3041C108.229 15.9186 108.004 16.4454 107.554 16.8843ZM125.802 26.0367H121.933C121.758 25.06 121.341 24.2754 120.682 23.6828C120.024 23.0792 119.168 22.7774 118.114 22.7774C116.819 22.7774 115.788 23.2932 115.02 24.3248C114.252 25.3453 113.867 26.75 113.867 28.5388C113.867 30.3495 114.252 31.7652 115.02 32.7858C115.788 33.7954 116.83 34.3002 118.147 34.3002C119.179 34.3002 120.024 34.0258 120.682 33.4771C121.341 32.9175 121.763 32.1383 121.95 31.1397H125.818C125.654 33.093 124.869 34.6623 123.464 35.8475C122.071 37.0218 120.282 37.6089 118.098 37.6089C115.53 37.6089 113.489 36.8023 111.974 35.1891C110.46 33.5649 109.703 31.3482 109.703 28.5388C109.703 25.7624 110.46 23.5566 111.974 21.9214C113.489 20.2753 115.519 19.4523 118.065 19.4523C120.304 19.4523 122.114 20.0778 123.497 21.3288C124.891 22.5689 125.659 24.1382 125.802 26.0367ZM131.523 27.0902L138.091 19.8144H142.815L135.836 27.3207L143.112 37.2632H138.371L132.856 29.8063L131.474 31.2055V37.2632H127.375V13.5098H131.474V27.0902H131.523ZM150.545 31.008H150.462L146.841 37.2632H142.479L148.108 28.5553L142.528 19.8144H147.137L150.66 25.9379H150.742L154.216 19.8144H158.709L153.096 28.44L158.644 37.2632H154.166L150.545 31.008Z" fill="#FF0083"/>
<path d="M162.669 37.4443C162 37.4443 161.435 37.2193 160.974 36.7694C160.524 36.3084 160.299 35.7433 160.299 35.0739C160.299 34.4154 160.524 33.8557 160.974 33.3948C161.435 32.9339 162 32.7035 162.669 32.7035C163.328 32.7035 163.882 32.9339 164.332 33.3948C164.793 33.8557 165.023 34.4154 165.023 35.0739C165.023 35.7433 164.793 36.3084 164.332 36.7694C163.882 37.2193 163.328 37.4443 162.669 37.4443Z" fill="url(#paint1_linear_1_4975)"/>
<path d="M192.802 37.2632H188.983V20.407H188.868L182.004 37.0657H179.107L172.242 20.407H172.127V37.2632H168.292V13.5098H173.214L180.489 31.436H180.621L187.897 13.5098H192.802V37.2632ZM211.363 33.6747V37.2632H195.989V13.5098H211.363V17.0983H200.236V23.5182H210.754V26.8927H200.236V33.6747H211.363Z" fill="#7B0C97"/>
<defs>
<linearGradient id="paint0_linear_1_4975" x1="62.7364" y1="17.9844" x2="-6.56433e-07" y2="2.28988e-06" gradientUnits="userSpaceOnUse">
<stop offset="0.168037" stop-color="#7B0C97"/>
<stop offset="0.882386" stop-color="#FF0084"/>
</linearGradient>
<linearGradient id="paint1_linear_1_4975" x1="160.26" y1="35.4707" x2="164.988" y2="35.5597" gradientUnits="userSpaceOnUse">
<stop stop-color="#FF0083"/>
<stop offset="1" stop-color="#7B0C97"/>
</linearGradient>
</defs>
</svg>
